<svg width="76" height="76" viewBox="0 0 76 76" fill="none" xmlns="http://www.w3.org/2000/svg">
<path d="M65.9933 14.5984C64.3759 12.9802 62.4556 11.6966 60.3419 10.8208C58.2283 9.94503 55.9629 9.49426 53.675 9.49426C51.3871 9.49426 49.1216 9.94503 47.008 10.8208C44.8944 11.6966 42.9741 12.9802 41.3567 14.5984L38 17.955L34.6433 14.5984C31.3763 11.3314 26.9453 9.49596 22.325 9.49596C17.7047 9.49596 13.2737 11.3314 10.0067 14.5984C6.73963 17.8654 4.90424 22.2964 4.90424 26.9167C4.90424 31.537 6.73963 35.968 10.0067 39.235L38 67.2284L65.9933 39.235C67.6115 37.6177 68.8951 35.6973 69.7709 33.5837C70.6467 31.47 71.0974 29.2046 71.0974 26.9167C71.0974 24.6288 70.6467 22.3634 69.7709 20.2498C68.8951 18.1361 67.6115 16.2158 65.9933 14.5984Z" stroke="#1E1E1E" stroke-width="4" stroke-linecap="round" stroke-linejoin="round"/>
</svg>
