<svg width="50" height="50" viewBox="0 0 50 50" fill="none" xmlns="http://www.w3.org/2000/svg">
<path d="M36.1973 22.3066L41.8887 16.9512L41.9219 16.918C43.0941 15.7457 43.7527 14.1558 43.7527 12.498C43.7527 10.8402 43.0941 9.25034 41.9219 8.07811C40.7497 6.90587 39.1598 6.24731 37.502 6.24731C35.8442 6.24731 34.2543 6.90587 33.082 8.07811C33.082 8.08982 33.0606 8.09959 33.0488 8.11131L27.6934 13.8027L11.4824 7.90428C11.203 7.80266 10.9004 7.78286 10.6102 7.84721C10.3199 7.91155 10.054 8.05738 9.84376 8.26756L5.15626 12.9551C4.99292 13.1185 4.86787 13.3162 4.79013 13.5338C4.71239 13.7514 4.68389 13.9836 4.70668 14.2136C4.72947 14.4435 4.80298 14.6656 4.92193 14.8637C5.04088 15.0618 5.20229 15.2311 5.39455 15.3594L17.8731 23.6777L14.9785 26.5625H10.9375C10.5237 26.5627 10.1268 26.727 9.834 27.0195L5.1465 31.707C4.96369 31.8894 4.82892 32.1142 4.75426 32.3614C4.67959 32.6086 4.66734 32.8704 4.71861 33.1235C4.76989 33.3766 4.88308 33.613 5.04807 33.8116C5.21306 34.0102 5.4247 34.1649 5.66408 34.2617L12.8555 37.1387L15.7266 44.3164L15.7383 44.3476C15.8376 44.5881 15.9954 44.7999 16.1973 44.9639C16.3992 45.1279 16.6389 45.2389 16.8946 45.2868C17.1503 45.3347 17.4139 45.318 17.6615 45.2383C17.9091 45.1585 18.1329 45.0182 18.3125 44.8301L22.9746 40.166C23.1205 40.0215 23.2365 39.8497 23.3159 39.6603C23.3953 39.471 23.4367 39.2678 23.4375 39.0625V35.0215L26.3203 32.1387L34.6387 44.6172C34.7669 44.8094 34.9362 44.9708 35.1343 45.0898C35.3325 45.2087 35.5545 45.2822 35.7845 45.305C36.0144 45.3278 36.2466 45.2993 36.4642 45.2216C36.6818 45.1438 36.8795 45.0188 37.043 44.8555L41.7305 40.168C41.9407 39.9577 42.0865 39.6918 42.1508 39.4015C42.2152 39.1113 42.1954 38.8087 42.0938 38.5293L36.1973 22.3066ZM36.1836 41.2969L27.8652 28.8203C27.7377 28.6266 27.5687 28.4637 27.3704 28.3434C27.1721 28.2231 26.9495 28.1485 26.7188 28.125C26.666 28.125 26.6152 28.125 26.5645 28.125C26.3591 28.1251 26.1557 28.1657 25.966 28.2444C25.7764 28.3232 25.6041 28.4386 25.459 28.584L20.7715 33.2715C20.4783 33.5639 20.3132 33.9609 20.3125 34.375V38.416L17.7598 40.9687L15.5137 35.3515C15.4351 35.1565 15.318 34.9794 15.1693 34.8307C15.0206 34.682 14.8435 34.5649 14.6485 34.4863L9.03517 32.2402L11.586 29.6875H15.625C15.8303 29.6876 16.0335 29.6474 16.2232 29.5689C16.4129 29.4905 16.5853 29.3755 16.7305 29.2305L21.418 24.543C21.5817 24.3795 21.707 24.1817 21.785 23.9639C21.8629 23.746 21.8916 23.5136 21.8688 23.2834C21.846 23.0532 21.7723 22.8309 21.6532 22.6326C21.534 22.4343 21.3723 22.2649 21.1797 22.1367L8.70314 13.8164L11.3399 11.1816L27.5938 17.0918C27.8801 17.197 28.1911 17.2161 28.4882 17.1467C28.7853 17.0773 29.0555 16.9224 29.2656 16.7012L35.3086 10.2734C35.8976 9.70164 36.688 9.38457 37.5088 9.39075C38.3297 9.39693 39.1152 9.72586 39.6955 10.3064C40.2758 10.887 40.6044 11.6726 40.6102 12.4935C40.616 13.3144 40.2986 14.1046 39.7266 14.6933L33.3067 20.7344C33.0854 20.9445 32.9305 21.2147 32.8611 21.5118C32.7917 21.8089 32.8108 22.1199 32.916 22.4062L38.8262 38.6601L36.1836 41.2969Z" fill="#343330"/>
</svg>
