<svg width="50" height="50" viewBox="0 0 50 50" fill="none" xmlns="http://www.w3.org/2000/svg">
<path d="M21.875 15.625C21.875 15.0069 22.0583 14.4027 22.4017 13.8888C22.745 13.3749 23.2331 12.9744 23.8041 12.7379C24.3751 12.5014 25.0035 12.4395 25.6097 12.56C26.2158 12.6806 26.7727 12.9783 27.2097 13.4153C27.6467 13.8523 27.9444 14.4092 28.065 15.0153C28.1855 15.6215 28.1236 16.2499 27.8871 16.8209C27.6506 17.3919 27.2501 17.88 26.7362 18.2233C26.2223 18.5667 25.6181 18.75 25 18.75C24.1712 18.75 23.3763 18.4208 22.7903 17.8347C22.2042 17.2487 21.875 16.4538 21.875 15.625ZM12.5 15.625C12.5 12.3098 13.817 9.13037 16.1612 6.78617C18.5054 4.44196 21.6848 3.125 25 3.125C28.3152 3.125 31.4946 4.44196 33.8388 6.78617C36.183 9.13037 37.5 12.3098 37.5 15.625C37.5 27.334 26.2539 33.8945 25.7812 34.1699C25.5451 34.3049 25.2778 34.3759 25.0059 34.3759C24.7339 34.3759 24.4666 34.3049 24.2305 34.1699C23.7461 33.8945 12.5 27.3438 12.5 15.625ZM15.625 15.625C15.625 23.8672 22.625 29.3379 25 30.957C27.373 29.3398 34.375 23.8672 34.375 15.625C34.375 13.1386 33.3873 10.754 31.6291 8.99587C29.871 7.23772 27.4864 6.25 25 6.25C22.5136 6.25 20.129 7.23772 18.3709 8.99587C16.6127 10.754 15.625 13.1386 15.625 15.625ZM39.6035 28.834C39.2189 28.7069 38.8001 28.7342 38.4352 28.91C38.0703 29.0858 37.788 29.3963 37.6476 29.7763C37.5073 30.1562 37.52 30.5758 37.683 30.9465C37.846 31.3173 38.1467 31.6103 38.5215 31.7637C41.7461 32.957 43.75 34.5547 43.75 35.9375C43.75 38.5469 36.6172 42.1875 25 42.1875C13.3828 42.1875 6.25 38.5469 6.25 35.9375C6.25 34.5547 8.25391 32.957 11.4785 31.7656C11.8533 31.6122 12.154 31.3192 12.317 30.9485C12.48 30.5777 12.4927 30.1582 12.3524 29.7782C12.212 29.3983 11.9297 29.0877 11.5648 28.9119C11.1999 28.7361 10.7811 28.7089 10.3965 28.8359C5.70703 30.5645 3.125 33.0879 3.125 35.9375C3.125 42.0273 14.3965 45.3125 25 45.3125C35.6035 45.3125 46.875 42.0273 46.875 35.9375C46.875 33.0879 44.293 30.5645 39.6035 28.834Z" fill="#343330"/>
</svg>
