<svg width="50" height="50" viewBox="0 0 50 50" fill="none" xmlns="http://www.w3.org/2000/svg">
<path d="M49.8867 22.8516L47.1523 16.0156C46.9204 15.4372 46.5201 14.9419 46.0033 14.5936C45.4865 14.2454 44.8771 14.0604 44.2539 14.0625H37.5V12.5C37.5 12.0856 37.3354 11.6882 37.0424 11.3951C36.7493 11.1021 36.3519 10.9375 35.9375 10.9375H6.25C5.4212 10.9375 4.62634 11.2667 4.04029 11.8528C3.45424 12.4388 3.125 13.2337 3.125 14.0625V35.9375C3.125 36.7663 3.45424 37.5612 4.04029 38.1472C4.62634 38.7333 5.4212 39.0625 6.25 39.0625H9.57031C9.91453 40.4069 10.6964 41.5985 11.7927 42.4494C12.8889 43.3004 14.2372 43.7623 15.625 43.7623C17.0128 43.7623 18.3611 43.3004 19.4573 42.4494C20.5536 41.5985 21.3355 40.4069 21.6797 39.0625H31.4453C31.7895 40.4069 32.5714 41.5985 33.6677 42.4494C34.7639 43.3004 36.1122 43.7623 37.5 43.7623C38.8878 43.7623 40.2361 43.3004 41.3323 42.4494C42.4286 41.5985 43.2105 40.4069 43.5547 39.0625H46.875C47.7038 39.0625 48.4987 38.7333 49.0847 38.1472C49.6708 37.5612 50 36.7663 50 35.9375V23.4375C50.0005 23.2367 49.9621 23.0377 49.8867 22.8516ZM37.5 17.1875H44.2539L46.1289 21.875H37.5V17.1875ZM6.25 14.0625H34.375V26.5625H6.25V14.0625ZM15.625 40.625C15.0069 40.625 14.4027 40.4417 13.8888 40.0983C13.3749 39.755 12.9744 39.2669 12.7379 38.6959C12.5014 38.1249 12.4395 37.4965 12.56 36.8903C12.6806 36.2842 12.9783 35.7273 13.4153 35.2903C13.8523 34.8533 14.4092 34.5556 15.0153 34.435C15.6215 34.3145 16.2499 34.3764 16.8209 34.6129C17.3919 34.8494 17.88 35.2499 18.2233 35.7638C18.5667 36.2777 18.75 36.8819 18.75 37.5C18.75 38.3288 18.4208 39.1237 17.8347 39.7097C17.2487 40.2958 16.4538 40.625 15.625 40.625ZM31.4453 35.9375H21.6797C21.3355 34.5931 20.5536 33.4015 19.4573 32.5506C18.3611 31.6996 17.0128 31.2377 15.625 31.2377C14.2372 31.2377 12.8889 31.6996 11.7927 32.5506C10.6964 33.4015 9.91453 34.5931 9.57031 35.9375H6.25V29.6875H34.375V32.0918C33.6565 32.5071 33.0276 33.0609 32.5247 33.721C32.0218 34.3811 31.6549 35.1345 31.4453 35.9375ZM37.5 40.625C36.8819 40.625 36.2777 40.4417 35.7638 40.0983C35.2499 39.755 34.8494 39.2669 34.6129 38.6959C34.3764 38.1249 34.3145 37.4965 34.435 36.8903C34.5556 36.2842 34.8533 35.7273 35.2903 35.2903C35.7273 34.8533 36.2842 34.5556 36.8903 34.435C37.4965 34.3145 38.1249 34.3764 38.6959 34.6129C39.2669 34.8494 39.755 35.2499 40.0983 35.7638C40.4417 36.2777 40.625 36.8819 40.625 37.5C40.625 38.3288 40.2958 39.1237 39.7097 39.7097C39.1237 40.2958 38.3288 40.625 37.5 40.625ZM46.875 35.9375H43.5547C43.2063 34.5964 42.423 33.4087 41.3273 32.5604C40.2317 31.7122 38.8856 31.2513 37.5 31.25V25H46.875V35.9375Z" fill="#343330"/>
</svg>
