<svg width="50" height="50" viewBox="0 0 50 50" fill="none" xmlns="http://www.w3.org/2000/svg">
<path d="M17.1874 43.75C17.1874 44.3681 17.0041 44.9723 16.6607 45.4862C16.3174 46.0001 15.8293 46.4006 15.2583 46.6371C14.6873 46.8736 14.0589 46.9355 13.4527 46.815C12.8465 46.6944 12.2897 46.3967 11.8527 45.9597C11.4156 45.5227 11.118 44.9658 10.9974 44.3597C10.8769 43.7535 10.9387 43.1251 11.1753 42.5541C11.4118 41.9831 11.8123 41.495 12.3262 41.1517C12.8401 40.8083 13.4443 40.625 14.0624 40.625C14.8912 40.625 15.686 40.9542 16.2721 41.5403C16.8582 42.1263 17.1874 42.9212 17.1874 43.75ZM42.1874 40.625C41.5693 40.625 40.9651 40.8083 40.4512 41.1517C39.9373 41.495 39.5368 41.9831 39.3003 42.5541C39.0637 43.1251 39.0019 43.7535 39.1224 44.3597C39.243 44.9658 39.5406 45.5227 39.9777 45.9597C40.4147 46.3967 40.9715 46.6944 41.5777 46.815C42.1839 46.9355 42.8123 46.8736 43.3833 46.6371C43.9543 46.4006 44.4424 46.0001 44.7857 45.4862C45.1291 44.9723 45.3124 44.3681 45.3124 43.75C45.3124 42.9212 44.9832 42.1263 44.3971 41.5403C43.8111 40.9542 43.0162 40.625 42.1874 40.625ZM46.8749 34.375H10.9374V14.709C10.9387 14.2985 10.8584 13.8918 10.7011 13.5125C10.5439 13.1333 10.3128 12.7891 10.0214 12.5L5.79286 8.26953C5.64769 8.12436 5.47534 8.0092 5.28567 7.93064C5.09599 7.85207 4.8927 7.81163 4.68739 7.81163C4.27276 7.81163 3.87511 7.97634 3.58192 8.26953C3.43675 8.4147 3.32159 8.58705 3.24303 8.77672C3.16446 8.9664 3.12402 9.1697 3.12402 9.375C3.12402 9.78963 3.28874 10.1873 3.58192 10.4805L7.81239 14.709V34.375H6.24989C5.83549 34.375 5.43806 34.5396 5.14504 34.8326C4.85201 35.1257 4.68739 35.5231 4.68739 35.9375C4.68739 36.3519 4.85201 36.7493 5.14504 37.0424C5.43806 37.3354 5.83549 37.5 6.24989 37.5H46.8749C47.2893 37.5 47.6867 37.3354 47.9797 37.0424C48.2728 36.7493 48.4374 36.3519 48.4374 35.9375C48.4374 35.5231 48.2728 35.1257 47.9797 34.8326C47.6867 34.5396 47.2893 34.375 46.8749 34.375ZM14.0624 28.125V14.0625C14.0624 13.2337 14.3916 12.4388 14.9777 11.8528C15.5637 11.2667 16.3586 10.9375 17.1874 10.9375H23.4374V7.8125C23.4374 6.9837 23.7666 6.18884 24.3527 5.60279C24.9387 5.01674 25.7336 4.6875 26.5624 4.6875H32.8124C33.6412 4.6875 34.4361 5.01674 35.0221 5.60279C35.6082 6.18884 35.9374 6.9837 35.9374 7.8125V10.9375H42.1874C43.0162 10.9375 43.8111 11.2667 44.3971 11.8528C44.9832 12.4388 45.3124 13.2337 45.3124 14.0625V28.125C45.3124 28.9538 44.9832 29.7487 44.3971 30.3347C43.8111 30.9208 43.0162 31.25 42.1874 31.25H17.1874C16.3586 31.25 15.5637 30.9208 14.9777 30.3347C14.3916 29.7487 14.0624 28.9538 14.0624 28.125ZM26.5624 10.9375H32.8124V7.8125H26.5624V10.9375ZM17.1874 28.125H42.1874V14.0625H17.1874V28.125Z" fill="#343330"/>
</svg>
