<svg width="40" height="40" viewBox="0 0 40 40" fill="none" xmlns="http://www.w3.org/2000/svg">
<g clip-path="url(#clip0_2045_357)">
<path d="M29.9003 29.9C27.0513 32.0717 23.5822 33.2748 20.0003 33.3334C8.33366 33.3334 1.66699 20 1.66699 20C3.74014 16.1365 6.61555 12.761 10.1003 10.1M16.5003 7.06669C17.6475 6.79815 18.8221 6.66392 20.0003 6.66669C31.667 6.66669 38.3337 20 38.3337 20C37.322 21.8927 36.1154 23.6746 34.7337 25.3167M23.5337 23.5334C23.0759 24.0246 22.5239 24.4186 21.9106 24.6919C21.2972 24.9652 20.6352 25.1121 19.9638 25.124C19.2925 25.1358 18.6256 25.0123 18.003 24.7608C17.3804 24.5094 16.8149 24.1351 16.3401 23.6603C15.8653 23.1855 15.491 22.6199 15.2395 21.9973C14.988 21.3747 14.8645 20.7079 14.8764 20.0365C14.8882 19.3652 15.0352 18.7031 15.3085 18.0898C15.5817 17.4764 15.9757 16.9244 16.467 16.4667M1.66699 1.66669L38.3337 38.3334" stroke="#1E1E1E" stroke-width="3.5" stroke-linecap="round" stroke-linejoin="round"/>
</g>
<defs>
<clipPath id="clip0_2045_357">
<rect width="40" height="40" fill="white"/>
</clipPath>
</defs>
</svg>
