<svg width="60" height="60" viewBox="0 0 60 60" fill="none" xmlns="http://www.w3.org/2000/svg">
<g clip-path="url(#clip0_88_367)">
<path d="M30 0C13.4297 0 0 13.4297 0 30C0 42.7148 7.91016 53.5664 19.0664 57.9375C18.8086 55.5586 18.5625 51.9258 19.1719 49.3359C19.7227 46.9922 22.6875 34.4297 22.6875 34.4297C22.6875 34.4297 21.7852 32.6367 21.7852 29.9766C21.7852 25.8047 24.1992 22.6875 27.2109 22.6875C29.7656 22.6875 31.0078 24.6094 31.0078 26.918C31.0078 29.4961 29.3672 33.3398 28.5234 36.9023C27.8203 39.8906 30.0234 42.3281 32.9648 42.3281C38.2969 42.3281 42.3984 36.7031 42.3984 28.5938C42.3984 21.4102 37.2422 16.3828 29.8711 16.3828C21.3398 16.3828 16.3242 22.7812 16.3242 29.4023C16.3242 31.9805 17.3203 34.7461 18.5625 36.2461C18.8086 36.5391 18.8438 36.8086 18.7734 37.1016C18.5508 38.0508 18.0352 40.0898 17.9414 40.5C17.8125 41.0508 17.5078 41.168 16.9336 40.8984C13.1836 39.1523 10.8398 33.6797 10.8398 29.2734C10.8398 19.8047 17.7188 11.1211 30.6563 11.1211C41.0625 11.1211 49.1484 18.5391 49.1484 28.4531C49.1484 38.7891 42.6328 47.1094 33.5859 47.1094C30.5508 47.1094 27.6914 45.5273 26.707 43.6641C26.707 43.6641 25.207 49.3945 24.8438 50.8008C24.1641 53.4023 22.3359 56.6719 21.1172 58.6641C23.9297 59.5313 26.9062 60 30 60C46.5703 60 60 46.5703 60 30C60 13.4297 46.5703 0 30 0Z" fill="black"/>
</g>
<defs>
<clipPath id="clip0_88_367">
<rect width="60" height="60" fill="white"/>
</clipPath>
</defs>
</svg>
